<?xml version="1.0" encoding="UTF-8"?>
<svg width="32px" height="21px" viewBox="0 0 32 21" version="1.1" xmlns="http://www.w3.org/2000/svg" xmlns:xlink="http://www.w3.org/1999/xlink">
    <!-- Generator: Sketch 55.1 (78136) - https://sketchapp.com -->
    <title>Icon</title>
    <desc>Created with Sketch.</desc>
    <g id="Menu" stroke="none" stroke-width="1" fill="currentColor" fill-rule="evenodd">
        <g id="Menu-#7" transform="translate(-80.000000, -907.000000)" fill="currentColor">
            <path d="M95.8624795,914.850199 C97.3095878,914.850199 98.4831635,916.004063 98.4831635,917.426866 C98.4831635,918.849669 97.3095878,920.003533 95.8624795,920.003533 C94.4153711,920.003533 93.2417954,918.849669 93.2417954,917.426866 C93.2417954,916.004063 94.4153711,914.850199 95.8624795,914.850199 Z M88.7776825,917.426767 C88.7776825,919.102688 89.3981591,920.725217 90.5244699,921.995753 C90.8895153,922.407071 90.846273,923.031957 90.427929,923.390871 C90.2368584,923.554014 90.0015399,923.634102 89.767227,923.634102 C89.4866549,923.634102 89.2070885,923.519408 89.0079728,923.295952 C87.5628757,921.664524 86.7664131,919.58124 86.7664131,917.426767 C86.7664131,915.31481 87.5337123,913.263166 88.9255108,911.648547 C89.2845223,911.232286 89.9190778,911.180871 90.3434557,911.533853 C90.7668279,911.886834 90.8191209,912.510732 90.4601093,912.926993 C89.3750295,914.185664 88.7776825,915.782486 88.7776825,917.426767 Z M82.0112694,917.426767 C82.0112694,920.703465 83.2240648,923.876344 85.4264048,926.361058 C85.7914502,926.773364 85.7482079,927.397262 85.3298639,927.756176 C85.1387933,927.919318 84.9034748,927.999407 84.6691619,927.999407 C84.3885898,927.999407 84.1090234,927.884712 83.9109133,927.661256 C81.3887815,924.815651 80,921.181028 80,917.426767 C80,913.743696 81.3374941,910.165431 83.7661019,907.350477 C84.1251135,906.933227 84.7586634,906.880824 85.1840469,907.234794 C85.6074191,907.588764 85.6597121,908.212662 85.3007005,908.628923 C83.1798169,911.087929 82.0112694,914.21236 82.0112694,917.426767 Z M101.656544,911.533952 C102.080922,911.181959 102.715478,911.233374 103.074489,911.648646 C104.466288,913.263265 105.233587,915.314909 105.233587,917.426866 C105.233587,919.58035 104.437124,921.663634 102.992027,923.29605 C102.792912,923.519507 102.514351,923.634201 102.232773,923.634201 C101.99846,923.634201 101.763142,923.554113 101.573077,923.39097 C101.153727,923.032056 101.110485,922.408158 101.47553,921.995852 C102.601841,920.725316 103.222318,919.101798 103.222318,917.426866 C103.222318,915.782585 102.624971,914.185763 101.539891,912.927092 C101.180879,912.510831 101.233172,911.886933 101.656544,911.533952 Z M108.233898,907.350081 C110.662506,910.165036 112,913.744289 112,917.426372 C112,921.181621 110.611218,924.816244 108.089087,927.660861 C107.890977,927.885306 107.61141,928 107.330838,928 C107.096525,928 106.861207,927.919912 106.670136,927.756769 C106.251792,927.396866 106.20855,926.773957 106.573595,926.361651 C108.775935,923.876937 109.988731,920.704058 109.988731,917.426372 C109.988731,914.210976 108.820183,911.086545 106.700305,908.628527 C106.340288,908.212266 106.392581,907.588369 106.815953,907.235387 C107.240331,906.883394 107.875892,906.93382 108.233898,907.350081 Z" id="Icon"></path>
        </g>
    </g>
</svg>