<?xml version="1.0" encoding="UTF-8"?>
<svg width="25px" height="24px" viewBox="0 0 25 24" version="1.1" xmlns="http://www.w3.org/2000/svg" xmlns:xlink="http://www.w3.org/1999/xlink">
    <!-- Generator: Sketch 55.1 (78136) - https://sketchapp.com -->
    <title>Icon</title>
    <desc>Created with Sketch.</desc>
    <g id="Menu" stroke="none" stroke-width="1" fill="none" fill-rule="evenodd">
        <g id="Menu-#1" transform="translate(-255.000000, -654.000000)" fill="currentColor">
            <path d="M273.42154,670.116157 C271.147858,670.116157 269.298231,668.202397 269.298231,665.849879 C269.298231,663.49736 271.147858,661.5836 273.42154,661.5836 C275.695222,661.5836 277.545825,663.49736 277.545825,665.849879 C277.545825,668.202397 275.695222,670.116157 273.42154,670.116157 M273.42154,659.561668 C276.772949,659.561668 279.5,662.382264 279.5,665.849879 C279.5,669.316482 276.772949,672.13809 273.42154,672.13809 C270.07013,672.13809 267.344057,669.316482 267.344057,665.849879 C267.344057,662.382264 270.07013,659.561668 273.42154,659.561668 Z M263.290024,665.893148 C263.290024,668.434718 264.184059,670.896421 265.807001,672.822312 C266.161684,673.243885 266.119669,673.882815 265.712223,674.249796 C265.527554,674.416606 265.298915,674.498494 265.070277,674.498494 C264.798647,674.498494 264.527994,674.381222 264.333553,674.151732 C262.400874,671.855828 261.335849,668.924025 261.335849,665.893148 C261.335849,662.921918 262.361791,660.033587 264.223142,657.761945 C264.570985,657.336328 265.188505,657.281736 265.599858,657.643662 C266.012189,658.004577 266.062998,658.643508 265.7132,659.069125 C264.150838,660.975808 263.290024,663.400105 263.290024,665.893148 Z M257.454175,665.911447 C257.454175,669.914873 258.86118,673.789908 261.418218,676.824829 C261.7729,677.245391 261.729909,677.884321 261.32344,678.251302 C261.138771,678.418112 260.909155,678.5 260.681494,678.5 C260.408887,678.5 260.138233,678.382728 259.94477,678.153239 C257.077996,674.750326 255.5,670.40317 255.5,665.911447 C255.5,661.506666 257.020348,657.225223 259.780619,653.856683 C260.128463,653.432077 260.745982,653.378496 261.157335,653.739411 C261.569666,654.100326 261.620475,654.738246 261.270678,655.163863 C258.810372,658.167444 257.454175,661.984853 257.454175,665.911447 Z" id="Icon" transform="translate(267.500000, 666.000000) rotate(-270.000000) translate(-267.500000, -666.000000) "></path>
        </g>
    </g>
</svg>