<?xml version="1.0" encoding="UTF-8"?>
<svg width="32px" height="32px" viewBox="0 0 32 32" version="1.1" xmlns="http://www.w3.org/2000/svg" xmlns:xlink="http://www.w3.org/1999/xlink">
    <!-- Generator: Sketch 55.1 (78136) - https://sketchapp.com -->
    <title>Icon</title>
    <desc>Created with Sketch.</desc>
    <g id="Travel" stroke="none" stroke-width="1" fill="none" fill-rule="evenodd">
        <g id="Reviews-#2" transform="translate(-686.000000, -92.000000)" fill="currentColor">
            <g id="Top-bar">
                <path d="M702.995754,108.995954 L717.003846,108.995954 C717.554609,108.995954 717.9998,108.549767 717.9998,108 C717.9998,107.449237 717.554609,107.004046 717.003846,107.004046 L702.995754,107.004046 L702.995754,92.9959539 C702.995754,92.4461874 702.550563,92 702.000796,92 C701.450033,92 701.004842,92.4461874 701.004842,92.9959539 L701.003846,107.004046 L686.995754,107.005042 C686.445987,107.005042 685.9998,107.450233 685.9998,108 C685.9998,108.275879 686.111347,108.524868 686.291615,108.705135 C686.471882,108.885403 686.720871,108.995954 686.995754,108.995954 L701.003846,108.995954 L701.003846,123.004046 C701.003846,123.278929 701.115393,123.527918 701.295661,123.708185 C701.475928,123.888453 701.724917,124 701.9998,124 C702.549567,124 702.995754,123.554809 702.995754,123.004046 L702.995754,108.995954 Z" id="Icon"></path>
            </g>
        </g>
    </g>
</svg>