<?xml version="1.0" encoding="UTF-8"?>
<svg width="45px" height="41px" viewBox="0 0 45 41" version="1.1" xmlns="http://www.w3.org/2000/svg" xmlns:xlink="http://www.w3.org/1999/xlink">
    <!-- Generator: Sketch 55.1 (78136) - https://sketchapp.com -->
    <title>Icon</title>
    <desc>Created with Sketch.</desc>
    <g id="Menu" stroke="none" stroke-width="1" fill="none" fill-rule="evenodd">
        <g id="Menu-#5" transform="translate(-52.000000, -674.000000)" fill="currentColor">
            <path d="M95.0182759,710.903058 C95.0182759,712.074036 94.0611032,713.026996 92.8859408,713.026996 L88.2645602,713.026996 L88.2645602,683.740718 L92.8859408,683.740718 C94.0611032,683.740718 95.0182759,684.693679 95.0182759,685.865643 L95.0182759,710.903058 Z M86.2828361,713.026996 L62.6814929,713.026996 L62.6814929,683.740718 L86.2828361,683.740718 L86.2828361,713.026996 Z M60.6987779,713.026996 L56.1140592,713.026996 C54.9388968,713.026996 53.9817241,712.074036 53.9817241,710.903058 L53.9817241,685.865643 C53.9817241,684.693679 54.9388968,683.740718 56.1140592,683.740718 L60.6987779,683.740718 L60.6987779,713.026996 Z M74.5004954,675.973004 C77.9189695,675.973004 80.7478807,678.495489 81.2304305,681.767715 L67.7695695,681.767715 C68.2521193,678.495489 71.0820214,675.973004 74.5004954,675.973004 L74.5004954,675.973004 Z M92.8859408,681.767715 L83.2329627,681.767715 C82.7385225,677.404418 79.0128812,674 74.5004954,674 C69.9871188,674 66.2614775,677.404418 65.7670373,681.767715 L56.1140592,681.767715 C53.8449851,681.767715 52,683.606554 52,685.865643 L52,710.903058 C52,713.162147 53.8449851,715 56.1140592,715 L92.8859408,715 C95.1550149,715 97,713.162147 97,710.903058 L97,685.865643 C97,683.606554 95.1550149,681.767715 92.8859408,681.767715 L92.8859408,681.767715 Z" id="Icon"></path>
        </g>
    </g>
</svg>