<?xml version="1.0" encoding="UTF-8"?>
<svg width="42px" height="45px" viewBox="0 0 42 45" version="1.1" xmlns="http://www.w3.org/2000/svg" xmlns:xlink="http://www.w3.org/1999/xlink">
    <!-- Generator: Sketch 55.1 (78136) - https://sketchapp.com -->
    <title>Icon</title>
    <desc>Created with Sketch.</desc>
    <g id="Menu" stroke="none" stroke-width="1" fill="none" fill-rule="evenodd">
        <g id="Menu-#5" transform="translate(-54.000000, -520.000000)" fill="currentColor">
            <path d="M61.5179781,554.715683 L62.9435786,540.284095 C62.9435786,532.997914 68.3525037,527.069532 75.0009948,527.069532 C81.6484912,527.069532 87.0584111,532.997914 87.0633853,540.383933 L88.4820219,554.715683 L61.5179781,554.715683 Z M75.0009948,563.003239 C71.3340281,563.003239 68.301767,560.25969 67.8142972,556.712444 L82.1866976,556.712444 C81.6992278,560.25969 78.6669667,563.003239 75.0009948,563.003239 L75.0009948,563.003239 Z M95.0051637,554.715683 L90.4816429,554.715683 L89.0480838,540.284095 C89.0480838,532.260111 83.2770382,525.68378 75.9958312,525.127682 L75.9958312,520.99838 C75.9958312,520.447274 75.5501445,520 75.0009948,520 C74.4508503,520 74.0061585,520.447274 74.0061585,520.99838 L74.0061585,525.127682 C66.7239566,525.68378 60.9539059,532.256118 60.9588801,540.185255 L59.5183571,554.715683 L54.9948363,554.715683 C54.4456867,554.715683 54,555.161959 54,555.714064 C54,556.266168 54.4456867,556.712444 54.9948363,556.712444 L59.3203847,556.712444 L65.803733,556.712444 C66.3011512,561.364897 70.234734,565 75.0009948,565 C79.7662608,565 83.6988488,561.364897 84.1972618,556.712444 L90.6796153,556.712444 L95.0051637,556.712444 C95.5553082,556.712444 96,556.266168 96,555.714064 C96,555.161959 95.5553082,554.715683 95.0051637,554.715683 L95.0051637,554.715683 Z" id="Icon"></path>
        </g>
    </g>
</svg>