<?xml version="1.0" encoding="UTF-8"?>
<svg width="26px" height="28px" viewBox="0 0 26 28" version="1.1" xmlns="http://www.w3.org/2000/svg" xmlns:xlink="http://www.w3.org/1999/xlink">
    <!-- Generator: Sketch 55.1 (78136) - https://sketchapp.com -->
    <title>Icon</title>
    <desc>Created with Sketch.</desc>
    <g id="Travel" stroke="none" stroke-width="1" fill="none" fill-rule="evenodd">
        <g id="Main#2" transform="translate(-213.000000, -152.000000)" fill="currentColor">
            <g id="Top-Bar">
                <path d="M235.931988,177.981525 L216.0672,177.981525 C215.495143,177.981525 215.028572,177.517299 215.028572,176.948117 L215.028572,163.264548 L236.970617,163.264548 L236.970617,176.948117 C236.970617,177.517299 236.504045,177.981525 235.931988,177.981525 M216.0672,156.473727 L219.201344,156.473727 L219.201344,157.593925 C219.201344,158.152005 219.654729,158.603112 220.215629,158.603112 C220.776529,158.603112 221.229915,158.152005 221.229915,157.593925 L221.229915,156.473727 L224.984801,156.473727 L224.984801,157.593925 C224.984801,158.152005 225.438187,158.603112 225.999087,158.603112 C226.559987,158.603112 227.013373,158.152005 227.013373,157.593925 L227.013373,156.473727 L230.769273,156.473727 L230.769273,157.593925 C230.769273,158.152005 231.222659,158.603112 231.783559,158.603112 C232.344459,158.603112 232.797845,158.152005 232.797845,157.593925 L232.797845,156.473727 L235.931988,156.473727 C236.504045,156.473727 236.970617,156.936944 236.970617,157.507135 L236.970617,161.246173 L215.028572,161.246173 L215.028572,157.507135 C215.028572,156.936944 215.495143,156.473727 216.0672,156.473727 M235.931988,154.455352 L232.797845,154.455352 L232.797845,153.009187 C232.797845,152.451107 232.344459,152 231.783559,152 C231.222659,152 230.769273,152.451107 230.769273,153.009187 L230.769273,154.455352 L227.013373,154.455352 L227.013373,153.009187 C227.013373,152.451107 226.559987,152 225.999087,152 C225.438187,152 224.984801,152.451107 224.984801,153.009187 L224.984801,154.455352 L221.229915,154.455352 L221.229915,153.009187 C221.229915,152.451107 220.776529,152 220.215629,152 C219.654729,152 219.201344,152.451107 219.201344,153.009187 L219.201344,154.455352 L216.0672,154.455352 C214.375372,154.455352 213,155.82381 213,157.507135 L213,176.948117 C213,178.631441 214.375372,179.999899 216.0672,179.999899 L235.931988,179.999899 C237.623817,179.999899 238.999189,178.631441 238.999189,176.948117 L238.999189,157.507135 C238.999189,155.82381 237.623817,154.455352 235.931988,154.455352" id="Icon"></path>
            </g>
        </g>
    </g>
</svg>