<?xml version="1.0" encoding="UTF-8"?>
<svg width="29px" height="26px" viewBox="0 0 29 26" version="1.1" xmlns="http://www.w3.org/2000/svg" xmlns:xlink="http://www.w3.org/1999/xlink">
    <!-- Generator: Sketch 55.1 (78136) - https://sketchapp.com -->
    <title>Icon</title>
    <desc>Created with Sketch.</desc>
    <g id="Menu" stroke="none" stroke-width="1" fill="none" fill-rule="evenodd">
        <g id="Menu-#7" transform="translate(-81.000000, -748.000000)" fill="currentColor">
            <path d="M98.2765171,769.123482 L91.894216,769.123482 C85.8862842,769.123482 81,764.386072 81,758.561189 C81,752.73741 85.8862842,748 91.894216,748 L99.105784,748 C105.112577,748 110,752.73741 110,758.561189 C110,763.94754 105.820785,768.403996 100.441826,769.044485 C100.915299,770.058567 102.076561,771.533077 104.888248,772.028195 C105.445086,772.126454 105.815173,772.644246 105.713826,773.184119 C105.622727,773.664374 105.192288,774 104.706051,774 C104.64456,774 104.583068,773.99448 104.521577,773.983439 C100.552564,773.284377 98.8237477,770.850555 98.2765171,769.123482 Z M91.894216,749.987261 L99.105784,749.987261 C103.982958,749.987261 107.950289,753.833715 107.950289,758.561189 C107.950289,763.289766 103.982958,767.136221 99.105784,767.136221 L91.894216,767.136221 C87.0170417,767.136221 83.0497114,763.289766 83.0497114,758.561189 C83.0497114,753.833715 87.0170417,749.987261 91.894216,749.987261 Z M91.894216,758.561189 C91.894216,757.900977 91.3419327,757.36552 90.660973,757.36552 C89.9788746,757.36552 89.4265913,757.900977 89.4265913,758.561189 C89.4265913,759.222505 89.9788746,759.757962 90.660973,759.757962 C91.3419327,759.757962 91.894216,759.222505 91.894216,758.561189 Z M96.8283269,758.561189 C96.8283269,757.900977 96.2760435,757.36552 95.5950838,757.36552 C94.9129854,757.36552 94.3618408,757.900977 94.3618408,758.561189 C94.3618408,759.222505 94.9129854,759.757962 95.5950838,759.757962 C96.2760435,759.757962 96.8283269,759.222505 96.8283269,758.561189 Z M101.763576,758.561189 C101.763576,757.900977 101.211293,757.36552 100.529195,757.36552 C99.848235,757.36552 99.2959516,757.900977 99.2959516,758.561189 C99.2959516,759.222505 99.848235,759.757962 100.529195,759.757962 C101.211293,759.757962 101.763576,759.222505 101.763576,758.561189 Z" id="Icon"></path>
        </g>
    </g>
</svg>