<?xml version="1.0" encoding="UTF-8"?>
<svg width="35px" height="35px" viewBox="0 0 35 35" version="1.1" xmlns="http://www.w3.org/2000/svg" xmlns:xlink="http://www.w3.org/1999/xlink">
    <!-- Generator: Sketch 55.1 (78136) - https://sketchapp.com -->
    <title>Instagram</title>
    <desc>Created with Sketch.</desc>
    <g id="Menu" stroke="none" stroke-width="1" fill="none" fill-rule="evenodd">
        <g id="About" transform="translate(-478.000000, -1177.000000)" fill="currentColor">
            <g id="Social-icons" transform="translate(215.000000, 1154.000000)">
                <g id="Instagram-" transform="translate(240.000000, 0.000000)">
                    <path d="M54.92,23 L26.08,23 C24.4,23 23,24.4 23,26.08 L23,34.655 L34.655,34.655 C36.405,33.395 38.26,32.31 40.5,32.31 C42.67,32.31 44.63,33.395 46.345,34.655 L58,34.655 L58,26.08 C58,24.4 56.6,23 54.92,23 L54.92,23 Z M55.655,31.12 C55.655,31.785 55.13,32.345 54.465,32.345 L49.88,32.345 C49.215,32.345 48.655,31.785 48.655,31.12 L48.655,26.535 C48.655,25.87 49.215,25.345 49.88,25.345 L54.465,25.345 C55.13,25.345 55.655,25.87 55.655,26.535 L55.655,31.12 Z M46.345,41.655 C46.345,38.435 43.72,35.845 40.5,35.845 C37.28,35.845 34.655,38.435 34.655,41.655 C34.655,44.875 37.28,47.5 40.5,47.5 C43.72,47.5 46.345,44.875 46.345,41.655 L46.345,41.655 Z M49.425,39.345 C49.635,40.045 49.705,40.78 49.705,41.515 C49.705,46.625 45.575,50.755 40.5,50.755 C35.425,50.755 31.295,46.625 31.295,41.515 C31.295,40.78 31.365,40.045 31.575,39.345 L23,39.345 L23,54.92 C23,56.6 24.4,58 26.08,58 L54.92,58 C56.6,58 58,56.6 58,54.92 L58,39.345 L49.425,39.345 Z" id="Instagram"></path>
                </g>
            </g>
        </g>
    </g>
</svg>