<?xml version="1.0" encoding="UTF-8"?>
<svg width="82px" height="82px" viewBox="0 0 82 82" version="1.1" xmlns="http://www.w3.org/2000/svg" xmlns:xlink="http://www.w3.org/1999/xlink">
    <!-- Generator: Sketch 55.1 (78136) - https://sketchapp.com -->
    <title>Button</title>
    <desc>Created with Sketch.</desc>
    <g id="Travel" stroke="none" stroke-width="1" fill="none" fill-rule="evenodd">
        <g id="Rooms" transform="translate(-519.000000, -1060.000000)" stroke="currentColor" stroke-width="2">
            <g id="Button" transform="translate(520.000000, 1061.000000)">
                <circle id="Oval" cx="40" cy="40" r="40"></circle>
                <path d="M40.230368,55 C39.4870437,55 38.7738913,54.6772711 38.2737703,54.113632 L26.7993307,41.1935682 C24.5016999,38.8271928 22.6740182,34.368989 25.2687959,29.7889664 C26.6448143,27.3598635 28.8290722,25.678037 31.2620191,25.1753072 C33.8302821,24.6471228 36.5046037,25.325308 38.6047462,27.0362255 C39.2081829,27.527137 39.7403043,28.0816852 40.1956247,28.6871428 C40.5787155,28.155322 41.0184929,27.6653195 41.5094709,27.2280447 C43.3371525,25.601673 45.6777554,24.8662148 48.100645,25.1462162 C52.0513266,25.6071276 55.2504552,28.8335071 55.8785779,32.9917095 C56.332984,35.998088 55.5146873,38.6971922 53.3779729,41.2426593 L42.2070802,54.0927228 C41.7087878,54.6654529 40.9938068,54.9954545 40.2440825,55 L40.230368,55" id="Icon"></path>
            </g>
        </g>
    </g>
</svg>