<?xml version="1.0" encoding="UTF-8"?>
<svg width="38px" height="44px" viewBox="0 0 38 44" version="1.1" xmlns="http://www.w3.org/2000/svg" xmlns:xlink="http://www.w3.org/1999/xlink">
    <!-- Generator: Sketch 55.1 (78136) - https://sketchapp.com -->
    <title>Icon</title>
    <desc>Created with Sketch.</desc>
    <g id="Menu" stroke="none" stroke-width="1" fill="none" fill-rule="evenodd">
        <g id="Menu-#5" transform="translate(-56.000000, -1230.000000)" fill="currentColor">
            <path d="M75,1274 C64.5234107,1274 56,1265.44839 56,1254.93713 C56,1248.1002 59.6948288,1241.7512 65.64036,1238.36943 C66.1148164,1238.10068 66.7177713,1238.26729 66.9886068,1238.74331 C67.2574654,1239.22033 67.0904172,1239.82528 66.6159609,1240.09503 C61.287223,1243.12573 57.9769015,1248.81325 57.9769015,1254.93713 C57.9769015,1264.35452 65.6136718,1272.01656 75,1272.01656 C84.3863282,1272.01656 92.0230985,1264.35452 92.0230985,1254.93713 C92.0230985,1248.81325 88.712777,1243.12573 83.3840391,1240.09503 C82.9095828,1239.82528 82.7425346,1239.22033 83.0113932,1238.74331 C83.2812402,1238.26828 83.8832067,1238.10068 84.35964,1238.36943 C90.3051712,1241.7512 94,1248.1002 94,1254.93713 C94,1265.44839 85.4765893,1274 75,1274 Z M75,1248.02255 C74.4533867,1248.02255 74.0115493,1247.57925 74.0115493,1247.03083 L74.0115493,1230.99172 C74.0115493,1230.4433 74.4533867,1230 75,1230 C75.5466133,1230 75.9884507,1230.4433 75.9884507,1230.99172 L75.9884507,1247.03083 C75.9884507,1247.57925 75.5466133,1248.02255 75,1248.02255 Z" id="Icon"></path>
        </g>
    </g>
</svg>