<?xml version="1.0" encoding="UTF-8"?>
<svg width="34px" height="31px" viewBox="0 0 34 31" version="1.1" xmlns="http://www.w3.org/2000/svg" xmlns:xlink="http://www.w3.org/1999/xlink">
    <!-- Generator: Sketch 55.1 (78136) - https://sketchapp.com -->
    <title>Icon</title>
    <desc>Created with Sketch.</desc>
    <g id="Travel" stroke="none" stroke-width="1" fill="none" fill-rule="evenodd">
        <g id="Rooms" transform="translate(-676.000000, -91.000000)" fill="currentColor">
            <g id="Top-bar">
                <path d="M683.126464,115.593872 C683.676874,115.593872 684.12178,116.045535 684.12178,116.604302 C684.12178,117.16307 683.676874,117.614733 683.126464,117.614733 L681.056206,117.614733 L681.056206,120.98957 C681.056206,121.548338 680.6113,122 680.06089,122 C679.51048,122 679.065574,121.548338 679.065574,120.98957 L679.065574,117.614733 L676.995316,117.614733 C676.444906,117.614733 676,117.16307 676,116.604302 C676,116.045535 676.444906,115.593872 676.995316,115.593872 L679.065574,115.593872 L679.065574,92.0104302 C679.065574,91.4516623 679.51048,91 680.06089,91 C680.6113,91 681.056206,91.4516623 681.056206,92.0104302 L681.056206,115.593872 L683.126464,115.593872 Z M696.065574,105.48957 C696.615984,105.48957 697.06089,105.941232 697.06089,106.5 C697.06089,107.058768 696.615984,107.51043 696.065574,107.51043 L693.995316,107.51043 L693.995316,120.98957 C693.995316,121.548338 693.55041,122 693,122 C692.44959,122 692.004684,121.548338 692.004684,120.98957 L692.004684,107.51043 L689.934426,107.51043 C689.384016,107.51043 688.93911,107.058768 688.93911,106.5 C688.93911,105.941232 689.384016,105.48957 689.934426,105.48957 L692.004684,105.48957 L692.004684,92.0104302 C692.004684,91.4516623 692.44959,91 693,91 C693.55041,91 693.995316,91.4516623 693.995316,92.0104302 L693.995316,105.48957 L696.065574,105.48957 Z M709.004684,95.3852673 C709.555094,95.3852673 710,95.8369296 710,96.3956975 C710,96.9544654 709.555094,97.4061278 709.004684,97.4061278 L706.934426,97.4061278 L706.934426,120.98957 C706.934426,121.548338 706.48952,122 705.93911,122 C705.3887,122 704.943794,121.548338 704.943794,120.98957 L704.943794,97.4061278 L702.873536,97.4061278 C702.323126,97.4061278 701.87822,96.9544654 701.87822,96.3956975 C701.87822,95.8369296 702.323126,95.3852673 702.873536,95.3852673 L704.943794,95.3852673 L704.943794,92.0104302 C704.943794,91.4516623 705.3887,91 705.93911,91 C706.48952,91 706.934426,91.4516623 706.934426,92.0104302 L706.934426,95.3852673 L709.004684,95.3852673 Z" id="Icon"></path>
            </g>
        </g>
    </g>
</svg>