<?xml version="1.0" encoding="UTF-8"?>
<svg width="39px" height="39px" viewBox="0 0 39 39" version="1.1" xmlns="http://www.w3.org/2000/svg" xmlns:xlink="http://www.w3.org/1999/xlink">
    <!-- Generator: Sketch 55.1 (78136) - https://sketchapp.com -->
    <title>Icon</title>
    <desc>Created with Sketch.</desc>
    <g id="Menu" stroke="none" stroke-width="1" fill="none" fill-rule="evenodd">
        <g id="Menu-#5" transform="translate(-55.000000, -825.000000)" fill="currentColor">
            <path d="M66.0782287,835.336063 C66.0782287,830.737378 69.8566151,826.995957 74.4994962,826.995957 C79.1433849,826.995957 82.9207637,830.737378 82.9207637,835.336063 C82.9207637,839.934748 79.1433849,843.677167 74.4994962,843.677167 C69.8566151,843.677167 66.0782287,839.934748 66.0782287,835.336063 M79.5595112,844.369764 C82.7625752,842.603342 84.9359031,839.218199 84.9359031,835.336063 C84.9359031,829.636608 80.2537267,825 74.4994962,825 C68.7442581,825 64.0630894,829.636608 64.0630894,835.336063 C64.0630894,839.218199 66.2364172,842.603342 69.4394812,844.369764 C61.137107,846.585276 55,854.08708 55,863.002022 C55,863.552906 55.4503837,864 56.0075697,864 C56.5647557,864 57.0151394,863.552906 57.0151394,863.002022 C57.0151394,853.452366 64.8590694,845.683103 74.4994962,845.683103 C84.1409306,845.683103 91.9848606,853.452366 91.9848606,863.002022 C91.9848606,863.552906 92.4352443,864 92.9924303,864 C93.5496163,864 94,863.552906 94,863.002022 C94,854.08708 87.862893,846.585276 79.5595112,844.369764" id="Icon"></path>
        </g>
    </g>
</svg>