<?xml version="1.0" encoding="UTF-8"?>
<svg width="32px" height="32px" viewBox="0 0 32 32" version="1.1" xmlns="http://www.w3.org/2000/svg" xmlns:xlink="http://www.w3.org/1999/xlink">
    <!-- Generator: Sketch 55.1 (78136) - https://sketchapp.com -->
    <title>Icon</title>
    <desc>Created with Sketch.</desc>
    <g id="Menu" stroke="none" stroke-width="1" fill="none" fill-rule="evenodd">
        <g id="Menu-#13" transform="translate(-41.000000, -226.000000)" fill="currentColor">
            <path d="M72.5755,256.100966 L62.4005,245.894069 C66.3616,241.126069 66.1163,234.029793 61.6558,229.55531 C59.293,227.185103 56.1965,226 53.1,226 C50.0035,226 46.907,227.185103 44.5442,229.55531 C39.8186,234.295724 39.8186,241.980138 44.5442,246.720552 C46.907,249.090759 50.0035,250.275862 53.1,250.275862 C55.85,250.275862 58.5967,249.336828 60.8319,247.467586 L71.0069,257.674483 C71.2225,257.890759 71.5063,258 71.7912,258 C72.075,258 72.3588,257.890759 72.5755,257.674483 C73.0078,257.239724 73.0078,256.534621 72.5755,256.100966 L72.5755,256.100966 Z M46.1084,245.151448 C42.2529,241.283862 42.2529,234.992 46.1084,231.124414 C47.9762,229.250759 50.4589,228.219034 53.1,228.219034 C55.7411,228.219034 58.2238,229.250759 60.0916,231.124414 C63.946,234.992 63.946,241.283862 60.0916,245.151448 C58.2238,247.025103 55.7411,248.056828 53.1,248.056828 C50.4589,248.056828 47.9762,247.025103 46.1084,245.151448 L46.1084,245.151448 Z" id="Icon"></path>
        </g>
    </g>
</svg>