<?xml version="1.0" encoding="UTF-8"?>
<svg width="34px" height="34px" viewBox="0 0 34 34" version="1.1" xmlns="http://www.w3.org/2000/svg" xmlns:xlink="http://www.w3.org/1999/xlink">
    <!-- Generator: Sketch 55.1 (78136) - https://sketchapp.com -->
    <title>Icon</title>
    <desc>Created with Sketch.</desc>
    <g id="Menu" stroke="none" stroke-width="1" fill="none" fill-rule="evenodd">
        <g id="Menu-#7" transform="translate(-80.000000, -1231.000000)" fill="currentColor">
            <path d="M96.9999038,1259.3679 C90.7316531,1259.3679 85.6315042,1254.26775 85.6315042,1248.0005 C85.6315042,1241.73125 90.7316531,1236.6321 96.9999038,1236.6321 C103.268154,1236.6321 108.368303,1241.73125 108.368303,1248.0005 C108.368303,1254.26775 103.268154,1259.3679 96.9999038,1259.3679 M113.00796,1247.00806 C113.555787,1247.00806 114.0004,1247.45168 114.0004,1248.0005 C114.0004,1248.54932 113.555787,1248.99294 113.00796,1248.99294 L110.302569,1248.99294 C110.085224,1251.92857 108.9201,1254.59824 107.10592,1256.70221 L109.020336,1258.61762 C109.40838,1259.00566 109.40838,1259.63388 109.020336,1260.02093 C108.826811,1260.21545 108.572746,1260.31171 108.318681,1260.31171 C108.064617,1260.31171 107.811545,1260.21545 107.617026,1260.02093 L105.70261,1258.10552 C103.598637,1259.92069 100.927981,1261.08482 97.9923437,1261.30217 L97.9923437,1264.00756 C97.9923437,1264.55638 97.5477306,1265 96.9999038,1265 C96.4520769,1265 96.0074638,1264.55638 96.0074638,1264.00756 L96.0074638,1261.30217 C93.0718265,1261.08482 90.402163,1259.92069 88.2971979,1258.10651 L86.3827813,1260.02093 C86.188263,1260.21545 85.9351909,1260.31171 85.6811262,1260.31171 C85.4270616,1260.31171 85.172997,1260.21545 84.9794712,1260.02093 C84.5914272,1259.63388 84.5914272,1259.00566 84.9794712,1258.61762 L86.8938878,1256.7032 C85.0797076,1254.59923 83.9145831,1251.92857 83.6972388,1248.99294 L80.9928399,1248.99294 C80.4440207,1248.99294 80.0004,1248.54932 80.0004,1248.0005 C80.0004,1247.45168 80.4440207,1247.00806 80.9928399,1247.00806 L83.6972388,1247.00806 C83.9145831,1244.07242 85.0797076,1241.40176 86.8948803,1239.2968 L84.9794712,1237.38238 C84.5914272,1236.99434 84.5914272,1236.36612 84.9794712,1235.97907 C85.3665228,1235.59103 85.9947373,1235.59103 86.3827813,1235.97907 L88.2981904,1237.89349 C90.402163,1236.07931 93.0728189,1234.91518 96.0074638,1234.69684 L96.0074638,1231.99244 C96.0074638,1231.44362 96.4520769,1231 96.9999038,1231 C97.5477306,1231 97.9923437,1231.44362 97.9923437,1231.99244 L97.9923437,1234.69684 C100.927981,1234.91518 103.597645,1236.07931 105.70261,1237.89448 L107.617026,1235.97907 C108.00507,1235.59103 108.633285,1235.59103 109.020336,1235.97907 C109.40838,1236.36612 109.40838,1236.99434 109.020336,1237.38238 L107.10592,1239.29779 C108.9201,1241.40176 110.085224,1244.07242 110.302569,1247.00806 L113.00796,1247.00806 Z M96.9999038,1241.84032 C93.6037743,1241.84032 90.8408215,1244.60328 90.8408215,1248.0004 C90.8408215,1251.39653 93.6037743,1254.15948 96.9999038,1254.15948 C100.396033,1254.15948 103.158986,1251.39653 103.158986,1248.0004 C103.158986,1244.60328 100.396033,1241.84032 96.9999038,1241.84032 Z M96.9999038,1252.1746 C94.6984356,1252.1746 92.8257014,1250.30187 92.8257014,1248.0004 C92.8257014,1245.69893 94.6984356,1243.8252 96.9999038,1243.8252 C99.301372,1243.8252 101.174106,1245.69893 101.174106,1248.0004 C101.174106,1250.30187 99.301372,1252.1746 96.9999038,1252.1746" id="Icon"></path>
        </g>
    </g>
</svg>