<?xml version="1.0" encoding="UTF-8"?>
<svg width="82px" height="82px" viewBox="0 0 82 82" version="1.1" xmlns="http://www.w3.org/2000/svg" xmlns:xlink="http://www.w3.org/1999/xlink">
    <!-- Generator: Sketch 55.1 (78136) - https://sketchapp.com -->
    <title>Button</title>
    <desc>Created with Sketch.</desc>
    <g id="Travel" stroke="none" stroke-width="1" fill="none" fill-rule="evenodd">
        <g id="Rooms" transform="translate(-639.000000, -1060.000000)">
            <g id="Button" transform="translate(640.000000, 1061.000000)">
                <circle id="Oval" stroke="currentColor" stroke-width="2" cx="40" cy="40" r="40"></circle>
                <path d="M53.0175439,37 C53.5608421,37 54,37.4501762 54,38.0071057 L54,50.2887596 C54,52.8860852 51.9378246,55 49.4040702,55 L30.5959298,55 C28.0621754,55 26,52.8860852 26,50.2887596 L26,38.0071057 C26,37.4501762 26.4391579,37 26.9824561,37 C27.5257544,37 27.9649123,37.4501762 27.9649123,38.0071057 L27.9649123,50.2887596 C27.9649123,51.7762547 29.1448421,52.9857886 30.5959298,52.9857886 L49.4040702,52.9857886 C50.8551579,52.9857886 52.0350877,51.7762547 52.0350877,50.2887596 L52.0350877,38.0071057 C52.0350877,37.4501762 52.4742456,37 53.0175439,37 Z M34.6766217,32.7028141 C34.2926363,33.0872052 33.6719745,33.0872052 33.2879891,32.7028141 C32.9040036,32.318423 32.9040036,31.6971054 33.2879891,31.3127144 L39.3060519,25.2882933 C39.6890553,24.9039022 40.3106992,24.9039022 40.6946846,25.2882933 L46.7127475,31.3127144 C47.0957508,31.6971054 47.0957508,32.318423 46.7127475,32.7028141 C46.5212458,32.8945181 46.2698385,32.9908617 46.0184312,32.9908617 C45.7670238,32.9908617 45.5156165,32.8945181 45.3241148,32.7028141 L40.9824281,28.3565404 L40.9824281,46.0169026 C40.9824281,46.5605555 40.5434474,47 40.0003683,47 C39.4572892,47 39.0183084,46.5605555 39.0183084,46.0169026 L39.0183084,28.3565404 L34.6766217,32.7028141 Z" id="Icon" fill="#B3BDC2"></path>
            </g>
        </g>
    </g>
</svg>