<?xml version="1.0" encoding="UTF-8"?>
<svg width="33px" height="28px" viewBox="0 0 33 28" version="1.1" xmlns="http://www.w3.org/2000/svg" xmlns:xlink="http://www.w3.org/1999/xlink">
    <!-- Generator: Sketch 55.1 (78136) - https://sketchapp.com -->
    <title>Twitter</title>
    <desc>Created with Sketch.</desc>
    <g id="Menu" stroke="none" stroke-width="1" fill="none" fill-rule="evenodd">
        <g id="About" transform="translate(-359.000000, -1182.000000)" fill="currentColor">
            <g id="Social-icons" transform="translate(215.000000, 1154.000000)">
                <g id="Twitter" transform="translate(120.000000, 0.000000)">
                    <path d="M53.6047521,35.7556361 C53.6047521,38.4935954 52.9673371,41.2315548 51.9049787,43.7522158 C48.7603981,51.0534407 42.2162708,55.3559482 34.4398079,55.3559482 C30.7852953,55.3559482 27.173277,54.2694564 24.113685,52.2703115 C24.623617,52.3137712 25.1760433,52.3572308 25.6859753,52.3572308 C28.7455673,52.3572308 31.6776763,51.3141987 34.0573589,49.4019731 C31.2102386,49.3585135 28.6605786,47.4028282 27.7681976,44.6214092 C28.193141,44.7083285 28.6180843,44.7517882 29.0430276,44.7517882 C29.6379483,44.7517882 30.2328689,44.6648689 30.8277896,44.4910302 C27.683209,43.8391351 25.3460206,41.0142564 25.4310093,37.754781 L25.4310093,37.6678617 C26.3658846,38.1893777 27.3857486,38.4935954 28.4906013,38.5370551 C26.5783563,37.2332649 25.4735036,35.103741 25.4735036,32.8003784 C25.4735036,31.5835076 25.770964,30.3666367 26.3658846,29.3236046 C29.8079256,33.6261121 34.8647512,36.2336925 40.2615315,36.5379102 C40.1340485,36.0163941 40.0915542,35.4948781 40.0915542,34.973362 C40.0915542,31.1489108 43.1086518,28.0632741 46.8481531,28.0632741 C48.6754094,28.0632741 50.4601714,28.8455482 51.7350014,30.2362577 C53.2647974,29.93204 54.7096047,29.3670643 56.026929,28.5847902 C55.5169971,30.1493384 54.4546387,31.5400479 53.0523257,32.3657817 C54.4121444,32.2354026 55.6869744,31.8442656 56.91931,31.2792899 C56.026929,32.6699994 54.8795821,33.8868702 53.5622577,34.842983 C53.6047521,35.1472007 53.6047521,35.4514184 53.6047521,35.7556361 Z"></path>
                </g>
            </g>
        </g>
    </g>
</svg>